<?xml version="1.0" encoding="utf-8"?>
<svg viewBox="0 0 512 512" xmlns="http://www.w3.org/2000/svg">
  <path style="fill: rgb(0, 38, 51);" d="M 236.081 70.796 L 322.976 70.236 C 332.163 70.84 340.055 77.454 346.653 90.077 C 363.247 121.825 369.745 156.677 373.582 194.117 C 381.353 269.938 375.799 337.048 372.523 410.601 C 372.074 420.691 366.197 423.688 356.613 423.42 C 278.966 421.249 204.906 425.603 123.581 423.503 C 119.43 423.396 113.217 421.523 119.395 414.278 C 132.226 399.23 143.227 382.882 156.74 363.23 C 185.795 320.976 201.655 293.202 214.257 258.242 L 229.725 284.489 C 223.32 297.215 215.24 311.308 204.663 331.375 C 195.29 349.159 168.991 383.722 160.17 397.019 C 155.923 403.421 161.26 402.723 165.52 402.65 C 222.649 401.67 290.177 400.414 343.562 402.332 C 350.15 402.569 354.19 399.92 354.5 391.005 C 356.752 326.008 360.57 266.706 355.228 199.705 C 352.59 166.62 344.522 137.273 333.113 109.219 C 328.577 98.064 322.861 90.769 316.544 90.236 L 260.822 91.403 C 253.18 92.498 256.121 98.604 256.73 102.501 C 262 136.239 257.917 158.968 254.71 186.785 C 251.898 211.176 249.063 228.544 245.518 242.749 L 227.294 210.484 C 229.096 201.56 230.774 191.89 232.347 181.273 C 237.012 149.794 237.983 122.296 230.318 84.116 C 229.432 79.705 227.091 73.393 236.081 70.796 Z"/>
  <path d="M 137.22 88.696 C 142.097 85.907 148.312 87.599 151.102 92.476 L 182.087 146.65 L 191.21 141.448 C 198.849 137.095 202.85 139.675 203.212 149.189 L 204.618 186.042 L 297.253 348.005 C 300.043 352.881 298.35 359.097 293.473 361.886 C 288.597 364.675 282.381 362.983 279.592 358.106 L 187.993 197.955 L 154.992 176.674 C 146.991 171.515 146.809 166.758 154.448 162.403 L 164.411 156.725 L 133.44 102.577 C 130.651 97.7 132.344 91.485 137.22 88.696 Z" style="fill: rgb(0, 38, 51);"/>
</svg>